<svg width="45" height="59" viewBox="0 0 45 59" fill="none" xmlns="http://www.w3.org/2000/svg">
<path d="M22.5002 5.98189C22.2033 5.98189 21.9167 5.93661 21.647 5.85266V9.91937H23.3533V5.85266C23.0836 5.93673 22.7971 5.98189 22.5002 5.98189Z" fill="#135693"/>
<path d="M22.5 6.09642C24.1517 6.09642 25.4906 4.75749 25.4906 3.10583C25.4906 1.45417 24.1517 0.115234 22.5 0.115234C20.8484 0.115234 19.5094 1.45417 19.5094 3.10583C19.5094 4.75749 20.8484 6.09642 22.5 6.09642Z" fill="#6BC1DD"/>
<g opacity="0.15">
<path opacity="0.15" d="M22.0267 3.10583C22.0267 1.90402 22.7359 0.868286 23.7587 0.392908C23.3759 0.21511 22.9498 0.115234 22.5 0.115234C20.8483 0.115234 19.5094 1.45423 19.5094 3.10583C19.5094 4.75742 20.8483 6.0963 22.5 6.0963C22.9498 6.0963 23.3759 5.99643 23.7587 5.81863C22.7359 5.34337 22.0267 4.30764 22.0267 3.10583Z" fill="#440075"/>
</g>
<path d="M41.562 14.5879H39.7985V30.8568H41.562C42.5288 30.8568 43.3199 30.0658 43.3199 29.099V16.3456C43.3199 15.3789 42.5288 14.5879 41.562 14.5879Z" fill="#9EA7AF"/>
<path d="M5.20129 14.5876H3.32139C2.35459 14.5876 1.56366 15.3787 1.56366 16.3454V29.0987C1.56366 30.0655 2.35459 30.8564 3.32139 30.8564H5.20117L5.20129 14.5876Z" fill="#9EA7AF"/>
<path d="M6.4 52.1416H3.98432C3.1596 52.1416 2.39347 51.891 1.75781 51.4618V57.1859C1.75781 57.8304 2.28518 58.3578 2.92971 58.3578H6.4V52.1416Z" fill="#C5CCD3"/>
<path d="M41.0155 52.1411H38.5999V58.3574H42.0702C42.7148 58.3574 43.2421 57.8301 43.2421 57.1855V51.4615C42.6064 51.8905 41.8402 52.1411 41.0155 52.1411Z" fill="#C5CCD3"/>
<path opacity="0.15" d="M4.21877 57.1858V52.1413H3.98432C3.1596 52.1413 2.39347 51.8907 1.75781 51.4615V57.1856C1.75781 57.8302 2.28518 58.3575 2.92971 58.3575H5.39066C4.74613 58.3577 4.21877 57.8303 4.21877 57.1858Z" fill="#440075"/>
<path d="M6.40003 43.1824H3.98435C1.78389 43.1824 0 44.9663 0 47.1667V48.3386C0 50.5391 1.784 52.3228 3.98435 52.3228H6.39991L6.40003 43.1824Z" fill="#E6E9ED"/>
<path d="M41.0155 43.1816H38.5999V52.3222H41.0155C43.2161 52.3222 44.9999 50.5383 44.9999 48.338V47.1661C44.9999 44.9654 43.216 43.1816 41.0155 43.1816Z" fill="#E6E9ED"/>
<g opacity="0.15">
<path opacity="0.15" d="M2.81257 48.338V47.1661C2.81257 44.9655 4.59646 43.1818 6.79691 43.1818H3.98435C1.78389 43.1818 0 44.9657 0 47.1661V48.338C0 50.5385 1.784 52.3222 3.98435 52.3222H6.79691C4.59634 52.3222 2.81257 50.5385 2.81257 48.338Z" fill="#440075"/>
</g>
<path d="M26.3902 35.3853H18.6106V38.2924H26.3902V35.3853Z" fill="#9EA7AF"/>
<path opacity="0.15" d="M21.4455 35.3853H18.6106V38.2924H21.4455V35.3853Z" fill="#440075"/>
<path d="M31.651 41.0662V39.175C31.651 38.6192 31.1963 38.1644 30.6405 38.1644H14.0182C13.4622 38.1644 13.0074 38.6192 13.0074 39.175V41.0662H31.651Z" fill="#C5CCD3"/>
<path opacity="0.15" d="M16.5123 41.0662V39.175C16.5123 38.6192 16.9671 38.1644 17.5231 38.1644H14.0182C13.4622 38.1644 13.0074 38.6192 13.0074 39.175V41.0662H16.5123Z" fill="#440075"/>
<path d="M36.9556 40.8676H8.04385C7.07706 40.8676 6.28601 41.6586 6.28601 42.6254V58.3578H38.7134V42.6254C38.7134 41.6586 37.9225 40.8676 36.9556 40.8676Z" fill="#9EA7AF"/>
<g opacity="0.15">
<path opacity="0.15" d="M11.4004 40.8676H8.04385C7.07706 40.8676 6.28601 41.6586 6.28601 42.6254V58.3578H9.64255V42.6254C9.64255 41.6586 10.4336 40.8676 11.4004 40.8676Z" fill="#440075"/>
</g>
<path d="M39.9122 33.7616C39.9122 34.7284 39.1212 35.5193 38.1545 35.5193H6.84507C5.87839 35.5193 5.08734 34.7284 5.08734 33.7616V11.5635C5.08734 10.5967 5.87839 9.80579 6.84507 9.80579H38.1545C39.1212 9.80579 39.9122 10.5967 39.9122 11.5635V33.7616Z" fill="#C5CCD3"/>
<g opacity="0.15">
<path opacity="0.15" d="M8.43728 33.7616V11.5635C8.43728 10.5967 9.22833 9.80579 10.1951 9.80579H6.84507C5.87839 9.80579 5.08734 10.5967 5.08734 11.5635V33.7617C5.08734 34.7285 5.87839 35.5194 6.84507 35.5194H10.1951C9.22833 35.5193 8.43728 34.7284 8.43728 33.7616Z" fill="#440075"/>
</g>
<path d="M35.7526 22.6954C35.7526 26.0488 33.0342 28.7667 29.6811 28.7667H15.3186C11.9653 28.7667 9.24701 26.0487 9.24701 22.6954C9.24701 19.3422 11.9653 16.6241 15.3186 16.6241H29.6811C33.0342 16.6241 35.7526 19.3422 35.7526 22.6954Z" fill="#135693"/>
<g opacity="0.15">
<path opacity="0.15" d="M12.6561 22.6954C12.6561 19.3422 15.3744 16.6241 18.7277 16.6241H15.3186C11.9653 16.6241 9.24701 19.3423 9.24701 22.6954C9.24701 26.0488 11.9653 28.7667 15.3186 28.7667H18.7277C15.3744 28.7667 12.6561 26.0487 12.6561 22.6954Z" fill="#440075"/>
</g>
<path d="M14.7123 25.0682C16.0162 25.0682 17.0731 24.0071 17.0731 22.6981C17.0731 21.389 16.0162 20.3279 14.7123 20.3279C13.4084 20.3279 12.3514 21.389 12.3514 22.6981C12.3514 24.0071 13.4084 25.0682 14.7123 25.0682Z" fill="#6BC1DD"/>
<path d="M30.3331 25.0669C31.637 25.0669 32.694 24.0057 32.694 22.6967C32.694 21.3877 31.637 20.3265 30.3331 20.3265C29.0292 20.3265 27.9723 21.3877 27.9723 22.6967C27.9723 24.0057 29.0292 25.0669 30.3331 25.0669Z" fill="#6BC1DD"/>
<path d="M32.9737 58.3568V48.1405C32.9737 47.496 32.4463 46.9686 31.8018 46.9686H13.1984C12.5539 46.9686 12.0266 47.496 12.0266 48.1405V58.3568H32.9737Z" fill="#135693"/>
<path d="M24.6093 58.3567V55.0617C24.6093 54.8683 24.4511 54.7101 24.2578 54.7101H20.7421C20.5489 54.7101 20.3906 54.8683 20.3906 55.0617V58.3567H24.6093Z" fill="#FFC502"/>
<path d="M17.578 50.6367H14.8828C14.4115 50.6367 14.0296 50.2549 14.0296 49.7836C14.0296 49.3123 14.4115 48.9304 14.8828 48.9304H17.578C18.0493 48.9304 18.4312 49.3123 18.4312 49.7836C18.4312 50.2547 18.0493 50.6367 17.578 50.6367Z" fill="#C5CCD3"/>
<path d="M16.4063 52.718H14.8828C14.4115 52.718 14.0297 52.3362 14.0297 51.8649C14.0297 51.3936 14.4115 51.0117 14.8828 51.0117H16.4063C16.8776 51.0117 17.2595 51.3936 17.2595 51.8649C17.2595 52.3362 16.8775 52.718 16.4063 52.718Z" fill="#C5CCD3"/>
<path d="M17.5781 54.8024H14.8828C14.4115 54.8024 14.0297 54.4204 14.0297 53.9492C14.0297 53.4779 14.4115 53.0961 14.8828 53.0961H17.5781C18.0494 53.0961 18.4313 53.4779 18.4313 53.9492C18.4313 54.4205 18.0494 54.8024 17.5781 54.8024Z" fill="#C5CCD3"/>
<path d="M16.0547 56.884H14.8828C14.4115 56.884 14.0297 56.5022 14.0297 56.0309C14.0297 55.5597 14.4115 55.1777 14.8828 55.1777H16.0547C16.526 55.1777 16.9079 55.5597 16.9079 56.0309C16.9079 56.5022 16.5259 56.884 16.0547 56.884Z" fill="#C5CCD3"/>
<path d="M29.7301 56.0281H27.6498C27.1562 56.0281 26.7562 55.6281 26.7562 55.1344C26.7562 54.6407 27.1563 54.2407 27.6498 54.2407H29.7301C30.2237 54.2407 30.6239 54.6408 30.6239 55.1344C30.6239 55.6282 30.2237 56.0281 29.7301 56.0281Z" fill="#E6E9ED"/>
<path d="M28.6906 52.9309C29.7272 52.9309 30.5675 52.0905 30.5675 51.0539C30.5675 50.0173 29.7272 49.177 28.6906 49.177C27.654 49.177 26.8137 50.0173 26.8137 51.0539C26.8137 52.0905 27.654 52.9309 28.6906 52.9309Z" fill="#5DC647"/>
<path d="M24.6615 52.0366C24.6615 52.2348 24.4994 52.3968 24.3013 52.3968H20.699C20.5009 52.3968 20.3388 52.2348 20.3388 52.0366V50.0728C20.3388 49.8746 20.5009 49.7125 20.699 49.7125H24.3013C24.4994 49.7125 24.6615 49.8746 24.6615 50.0728V52.0366Z" fill="#6BC1DD"/>
</svg>
