<svg width="284" height="57" viewBox="0 0 284 57" fill="none" xmlns="http://www.w3.org/2000/svg">
<path d="M22.0202 5.74219C21.7296 5.74219 21.4492 5.69788 21.1852 5.61572V9.5957H22.8552V5.61572C22.5912 5.69799 22.3108 5.74219 22.0202 5.74219Z" fill="#135693"/>
<path d="M22.0201 5.85363C23.6366 5.85363 24.947 4.54325 24.947 2.92682C24.947 1.31038 23.6366 0 22.0201 0C20.4037 0 19.0933 1.31038 19.0933 2.92682C19.0933 4.54325 20.4037 5.85363 22.0201 5.85363Z" fill="#6BC1DD"/>
<g opacity="0.15">
<path opacity="0.15" d="M21.5569 2.92682C21.5569 1.75063 22.251 0.736992 23.252 0.271752C22.8774 0.0977461 22.4603 0 22.0201 0C20.4037 0 19.0933 1.31044 19.0933 2.92682C19.0933 4.54319 20.4037 5.85352 22.0201 5.85352C22.4603 5.85352 22.8774 5.75577 23.252 5.58177C22.251 5.11664 21.5569 4.103 21.5569 2.92682Z" fill="#440075"/>
</g>
<path d="M40.6761 14.1637H38.9501V30.0856H40.6761C41.6222 30.0856 42.3964 29.3116 42.3964 28.3654V15.8839C42.3964 14.9379 41.6222 14.1637 40.6761 14.1637Z" fill="#9EA7AF"/>
<path d="M5.09045 14.1642H3.25064C2.30446 14.1642 1.5304 14.9384 1.5304 15.8844V28.3658C1.5304 29.3119 2.30446 30.086 3.25064 30.086H5.09033L5.09045 14.1642Z" fill="#9EA7AF"/>
<path d="M6.26353 50.9165H3.89936C3.09223 50.9165 2.34244 50.6713 1.72034 50.2512V55.8532C1.72034 56.484 2.23645 57.0001 2.86724 57.0001H6.26353V50.9165Z" fill="#C5CCD3"/>
<path d="M40.1411 50.9163H37.777V57H41.1733C41.8041 57 42.3202 56.4839 42.3202 55.8531V50.2512C41.698 50.671 40.9482 50.9163 40.1411 50.9163Z" fill="#C5CCD3"/>
<path opacity="0.15" d="M4.12881 55.8532V50.9164H3.89936C3.09223 50.9164 2.34244 50.6711 1.72034 50.2511V55.8531C1.72034 56.4839 2.23645 57 2.86724 57H5.27571C4.64493 57.0001 4.12881 56.484 4.12881 55.8532Z" fill="#440075"/>
<path d="M6.26354 42.149H3.89938C1.74585 42.149 0 43.8949 0 46.0484V47.1953C0 49.3489 1.74596 51.0946 3.89938 51.0946H6.26343L6.26354 42.149Z" fill="#E6E9ED"/>
<path d="M40.141 42.1477H37.7769V51.0934H40.141C42.2946 51.0934 44.0403 49.3475 44.0403 47.1941V46.0472C44.0403 43.8934 42.2945 42.1477 40.141 42.1477Z" fill="#E6E9ED"/>
<g opacity="0.15">
<path opacity="0.15" d="M2.75259 47.1941V46.0472C2.75259 43.8936 4.49843 42.1478 6.65196 42.1478H3.89938C1.74585 42.1478 0 43.8937 0 46.0472V47.1941C0 49.3476 1.74596 51.0934 3.89938 51.0934H6.65196C4.49832 51.0934 2.75259 49.3476 2.75259 47.1941Z" fill="#440075"/>
</g>
<path d="M25.8275 34.5173H18.2138V37.3624H25.8275V34.5173Z" fill="#9EA7AF"/>
<path opacity="0.15" d="M20.9882 34.5173H18.2138V37.3624H20.9882V34.5173Z" fill="#440075"/>
<path d="M30.9764 40.078V38.2272C30.9764 37.6832 30.5313 37.2382 29.9873 37.2382H13.7195C13.1754 37.2382 12.7303 37.6832 12.7303 38.2272V40.078H30.9764Z" fill="#C5CCD3"/>
<path opacity="0.15" d="M16.1605 40.078V38.2272C16.1605 37.6832 16.6056 37.2382 17.1497 37.2382H13.7195C13.1754 37.2382 12.7303 37.6832 12.7303 38.2272V40.078H16.1605Z" fill="#440075"/>
<path d="M36.1677 39.8829H7.87257C6.9264 39.8829 6.15222 40.6571 6.15222 41.6033V57.0002H37.8881V41.6033C37.8881 40.6571 37.114 39.8829 36.1677 39.8829Z" fill="#9EA7AF"/>
<g opacity="0.15">
<path opacity="0.15" d="M11.1575 39.8829H7.87257C6.9264 39.8829 6.15222 40.6571 6.15222 41.6033V57.0002H9.43718V41.6033C9.43718 40.6571 10.2114 39.8829 11.1575 39.8829Z" fill="#440075"/>
</g>
<path d="M39.0613 32.9293C39.0613 33.8755 38.2872 34.6495 37.3411 34.6495H6.69937C5.7533 34.6495 4.97913 33.8755 4.97913 32.9293V11.2046C4.97913 10.2584 5.7533 9.48438 6.69937 9.48438H37.3411C38.2872 9.48438 39.0613 10.2584 39.0613 11.2046V32.9293Z" fill="#C5CCD3"/>
<g opacity="0.15">
<path opacity="0.15" d="M8.25763 32.9293V11.2046C8.25763 10.2584 9.0318 9.48438 9.97798 9.48438H6.69937C5.7533 9.48438 4.97913 10.2584 4.97913 11.2046V32.9294C4.97913 33.8756 5.7533 34.6496 6.69937 34.6496H9.97798C9.0318 34.6495 8.25763 33.8755 8.25763 32.9293Z" fill="#440075"/>
</g>
<path d="M34.9903 22.0994C34.9903 25.3812 32.3299 28.0412 29.0482 28.0412H14.9921C11.7102 28.0412 9.04993 25.3811 9.04993 22.0994C9.04993 18.8177 11.7102 16.1576 14.9921 16.1576H29.0482C32.3299 16.1576 34.9903 18.8177 34.9903 22.0994Z" fill="#135693"/>
<g opacity="0.15">
<path opacity="0.15" d="M12.3863 22.0994C12.3863 18.8177 15.0466 16.1576 18.3285 16.1576H14.9921C11.7102 16.1576 9.04993 18.8178 9.04993 22.0994C9.04993 25.3812 11.7102 28.0412 14.9921 28.0412H18.3285C15.0466 28.0412 12.3863 25.3811 12.3863 22.0994Z" fill="#440075"/>
</g>
<path d="M14.3986 24.4199C15.6747 24.4199 16.7091 23.3814 16.7091 22.1003C16.7091 20.8192 15.6747 19.7806 14.3986 19.7806C13.1226 19.7806 12.0881 20.8192 12.0881 22.1003C12.0881 23.3814 13.1226 24.4199 14.3986 24.4199Z" fill="#6BC1DD"/>
<path d="M29.6861 24.4195C30.9622 24.4195 31.9966 23.381 31.9966 22.0999C31.9966 20.8188 30.9622 19.7803 29.6861 19.7803C28.4101 19.7803 27.3756 20.8188 27.3756 22.0999C27.3756 23.381 28.4101 24.4195 29.6861 24.4195Z" fill="#6BC1DD"/>
<path d="M32.2704 57V47.0016C32.2704 46.3709 31.7542 45.8547 31.1235 45.8547H12.9169C12.2861 45.8547 11.77 46.3709 11.77 47.0016V57H32.2704Z" fill="#135693"/>
<path d="M24.0845 57V53.7753C24.0845 53.586 23.9296 53.4312 23.7405 53.4312H20.2998C20.1106 53.4312 19.9557 53.586 19.9557 53.7753V57H24.0845Z" fill="#FFC502"/>
<path d="M17.2034 49.4443H14.5656C14.1044 49.4443 13.7307 49.0706 13.7307 48.6094C13.7307 48.1481 14.1044 47.7744 14.5656 47.7744H17.2034C17.6647 47.7744 18.0384 48.1481 18.0384 48.6094C18.0384 49.0705 17.6647 49.4443 17.2034 49.4443Z" fill="#C5CCD3"/>
<path d="M16.0563 51.4825H14.5653C14.1041 51.4825 13.7303 51.1088 13.7303 50.6476C13.7303 50.1864 14.1041 49.8126 14.5653 49.8126H16.0563C16.5176 49.8126 16.8913 50.1864 16.8913 50.6476C16.8913 51.1088 16.5174 51.4825 16.0563 51.4825Z" fill="#C5CCD3"/>
<path d="M17.2031 53.5214H14.5653C14.1041 53.5214 13.7303 53.1475 13.7303 52.6864C13.7303 52.2252 14.1041 51.8514 14.5653 51.8514H17.2031C17.6643 51.8514 18.0381 52.2252 18.0381 52.6864C18.0381 53.1476 17.6643 53.5214 17.2031 53.5214Z" fill="#C5CCD3"/>
<path d="M15.7122 55.5594H14.5653C14.1041 55.5594 13.7303 55.1857 13.7303 54.7245C13.7303 54.2634 14.1041 53.8895 14.5653 53.8895H15.7122C16.1734 53.8895 16.5472 54.2634 16.5472 54.7245C16.5472 55.1857 16.1733 55.5594 15.7122 55.5594Z" fill="#C5CCD3"/>
<path d="M29.0962 54.7209H27.0603C26.5772 54.7209 26.1858 54.3293 26.1858 53.8462C26.1858 53.363 26.5773 52.9716 27.0603 52.9716H29.0962C29.5793 52.9716 29.9709 53.3631 29.9709 53.8462C29.9709 54.3294 29.5793 54.7209 29.0962 54.7209Z" fill="#E6E9ED"/>
<path d="M28.0786 51.6897C29.0931 51.6897 29.9155 50.8673 29.9155 49.8528C29.9155 48.8383 29.0931 48.0159 28.0786 48.0159C27.0641 48.0159 26.2416 48.8383 26.2416 49.8528C26.2416 50.8673 27.0641 51.6897 28.0786 51.6897Z" fill="#5DC647"/>
<path d="M24.1354 50.8132C24.1354 51.0072 23.9768 51.1657 23.783 51.1657H20.2574C20.0636 51.1657 19.905 51.0072 19.905 50.8132V48.8913C19.905 48.6973 20.0636 48.5387 20.2574 48.5387H23.783C23.9768 48.5387 24.1354 48.6973 24.1354 48.8913V50.8132Z" fill="#6BC1DD"/>
<path d="M71.1276 39L69.5534 34.5305H63.3997L61.8254 39H59.0403L65.0289 22.8395H67.9572L73.9348 39H71.1276ZM68.8709 32.2628L67.3407 27.8594C67.282 27.6686 67.1976 27.4007 67.0875 27.0558C66.9774 26.7035 66.8673 26.3475 66.7573 25.9879C66.6472 25.621 66.5554 25.3127 66.482 25.0632C66.4087 25.3641 66.3169 25.7017 66.2068 26.076C66.1041 26.4429 66.0013 26.7879 65.8986 27.1108C65.8032 27.4337 65.7298 27.6832 65.6784 27.8594L64.1372 32.2628H68.8709ZM81.971 26.5824C82.1765 26.5824 82.4004 26.5934 82.6426 26.6154C82.8847 26.6374 83.0939 26.6668 83.27 26.7035L83.0279 29.1254C82.8737 29.0813 82.6829 29.0483 82.4554 29.0263C82.2352 29.0043 82.0371 28.9933 81.861 28.9933C81.3986 28.9933 80.9583 29.0703 80.5399 29.2244C80.1216 29.3712 79.751 29.5987 79.4281 29.907C79.1052 30.2079 78.852 30.5858 78.6685 31.0408C78.485 31.4959 78.3933 32.0243 78.3933 32.6261V39H75.7953V26.8136H77.8208L78.1731 28.9602H78.2942C78.5364 28.5272 78.8373 28.1309 79.1969 27.7713C79.5565 27.4117 79.9675 27.1255 80.4298 26.9126C80.8995 26.6925 81.4133 26.5824 81.971 26.5824ZM90.0623 37.1286C90.3999 37.1286 90.7338 37.0992 91.0641 37.0405C91.3943 36.9744 91.6952 36.8974 91.9668 36.8093V38.7688C91.6806 38.8936 91.3099 39 90.8549 39.0881C90.3999 39.1761 89.9265 39.2202 89.4348 39.2202C88.7449 39.2202 88.1248 39.1064 87.5744 38.8789C87.0239 38.6441 86.5873 38.2441 86.2644 37.679C85.9414 37.1139 85.78 36.3323 85.78 35.3342V28.7841H84.1177V27.6282L85.9011 26.7145L86.7487 24.1055H88.378V26.8136H91.8677V28.7841H88.378V35.3011C88.378 35.9176 88.5321 36.3763 88.8404 36.6772C89.1486 36.9781 89.5559 37.1286 90.0623 37.1286ZM97.0307 26.8136V39H94.4437V26.8136H97.0307ZM95.7537 22.146C96.15 22.146 96.4913 22.2524 96.7775 22.4652C97.0711 22.678 97.2178 23.045 97.2178 23.5661C97.2178 24.0798 97.0711 24.4467 96.7775 24.6669C96.4913 24.8797 96.15 24.9862 95.7537 24.9862C95.3427 24.9862 94.9941 24.8797 94.7079 24.6669C94.429 24.4467 94.2896 24.0798 94.2896 23.5661C94.2896 23.045 94.429 22.678 94.7079 22.4652C94.9941 22.2524 95.3427 22.146 95.7537 22.146ZM106.828 28.7841H103.867V39H101.28V28.7841H99.2874V27.5401L101.28 26.7805V25.9329C101.28 24.8981 101.441 24.0761 101.764 23.467C102.095 22.8578 102.564 22.4212 103.173 22.157C103.79 21.8854 104.524 21.7496 105.375 21.7496C105.933 21.7496 106.443 21.7973 106.905 21.8928C107.368 21.9808 107.757 22.0836 108.072 22.201L107.401 24.1605C107.151 24.0798 106.872 24.0064 106.564 23.9403C106.256 23.867 105.926 23.8303 105.573 23.8303C104.986 23.8303 104.553 24.0137 104.274 24.3807C104.003 24.7476 103.867 25.2834 103.867 25.9879V26.8136H106.828V28.7841ZM111.485 26.8136V39H108.898V26.8136H111.485ZM110.208 22.146C110.604 22.146 110.945 22.2524 111.232 22.4652C111.525 22.678 111.672 23.045 111.672 23.5661C111.672 24.0798 111.525 24.4467 111.232 24.6669C110.945 24.8797 110.604 24.9862 110.208 24.9862C109.797 24.9862 109.448 24.8797 109.162 24.6669C108.883 24.4467 108.744 24.0798 108.744 23.5661C108.744 23.045 108.883 22.678 109.162 22.4652C109.448 22.2524 109.797 22.146 110.208 22.146ZM120.094 39.2202C118.941 39.2202 117.943 38.9963 117.099 38.5487C116.255 38.101 115.606 37.4148 115.151 36.4901C114.696 35.5653 114.468 34.3911 114.468 32.9673C114.468 31.4848 114.718 30.2739 115.217 29.3345C115.716 28.3951 116.406 27.7016 117.286 27.2539C118.174 26.8062 119.191 26.5824 120.336 26.5824C121.062 26.5824 121.719 26.6558 122.306 26.8026C122.901 26.942 123.403 27.1145 123.814 27.32L123.044 29.3896C122.596 29.2061 122.137 29.052 121.668 28.9272C121.198 28.8024 120.747 28.7401 120.314 28.7401C119.602 28.7401 119.007 28.8978 118.53 29.2134C118.061 29.529 117.708 29.9987 117.474 30.6225C117.246 31.2463 117.132 32.0206 117.132 32.9453C117.132 33.8407 117.25 34.5966 117.485 35.2131C117.719 35.8222 118.068 36.2846 118.53 36.6001C118.993 36.9084 119.561 37.0625 120.237 37.0625C120.905 37.0625 121.503 36.9818 122.031 36.8203C122.559 36.6589 123.059 36.4497 123.528 36.1928V38.4386C123.066 38.7028 122.57 38.8973 122.042 39.022C121.514 39.1541 120.864 39.2202 120.094 39.2202ZM128.977 26.8136V39H126.39V26.8136H128.977ZM127.7 22.146C128.097 22.146 128.438 22.2524 128.724 22.4652C129.018 22.678 129.165 23.045 129.165 23.5661C129.165 24.0798 129.018 24.4467 128.724 24.6669C128.438 24.8797 128.097 24.9862 127.7 24.9862C127.289 24.9862 126.941 24.8797 126.655 24.6669C126.376 24.4467 126.236 24.0798 126.236 23.5661C126.236 23.045 126.376 22.678 126.655 22.4652C126.941 22.2524 127.289 22.146 127.7 22.146ZM137.465 26.5824C139.006 26.5824 140.169 26.9237 140.955 27.6062C141.747 28.2887 142.144 29.3529 142.144 30.7987V39H140.305L139.81 37.2717H139.722C139.377 37.712 139.021 38.0753 138.654 38.3615C138.287 38.6477 137.861 38.8606 137.377 39C136.9 39.1468 136.316 39.2202 135.627 39.2202C134.9 39.2202 134.251 39.0881 133.678 38.8239C133.106 38.5523 132.654 38.1413 132.324 37.5909C131.994 37.0405 131.829 36.3433 131.829 35.4993C131.829 34.2443 132.295 33.3013 133.227 32.6701C134.166 32.0389 135.583 31.6903 137.476 31.6243L139.59 31.5472V30.9087C139.59 30.0647 139.391 29.463 138.995 29.1033C138.606 28.7437 138.056 28.5639 137.344 28.5639C136.735 28.5639 136.144 28.652 135.572 28.8281C134.999 29.0043 134.441 29.2208 133.898 29.4776L133.062 27.6502C133.656 27.3346 134.331 27.0778 135.087 26.8796C135.85 26.6815 136.643 26.5824 137.465 26.5824ZM139.579 33.1765L138.004 33.2315C136.713 33.2756 135.806 33.4957 135.285 33.892C134.764 34.2884 134.504 34.8314 134.504 35.5213C134.504 36.1231 134.684 36.5634 135.043 36.8423C135.403 37.1139 135.876 37.2496 136.463 37.2496C137.359 37.2496 138.1 36.9964 138.687 36.4901C139.281 35.9763 139.579 35.2241 139.579 34.2333V33.1765ZM148.363 39H145.765V21.8707H148.363V39ZM158.183 39V22.9055H160.825V39H158.183ZM171.162 26.5824C172.534 26.5824 173.602 26.9383 174.366 27.6502C175.136 28.3548 175.521 29.4886 175.521 31.0518V39H172.934V31.5362C172.934 30.5895 172.74 29.8813 172.351 29.4116C171.962 28.9345 171.36 28.696 170.546 28.696C169.364 28.696 168.542 29.0593 168.08 29.7859C167.625 30.5124 167.397 31.5656 167.397 32.9453V39H164.81V26.8136H166.825L167.188 28.4648H167.331C167.595 28.0392 167.922 27.6906 168.311 27.419C168.707 27.1402 169.148 26.931 169.632 26.7915C170.124 26.6521 170.634 26.5824 171.162 26.5824ZM183.679 37.1286C184.016 37.1286 184.35 37.0992 184.681 37.0405C185.011 36.9744 185.312 36.8974 185.583 36.8093V38.7688C185.297 38.8936 184.926 39 184.471 39.0881C184.016 39.1761 183.543 39.2202 183.051 39.2202C182.361 39.2202 181.741 39.1064 181.191 38.8789C180.64 38.6441 180.204 38.2441 179.881 37.679C179.558 37.1139 179.396 36.3323 179.396 35.3342V28.7841H177.734V27.6282L179.518 26.7145L180.365 24.1055H181.994V26.8136H185.484V28.7841H181.994V35.3011C181.994 35.9176 182.149 36.3763 182.457 36.6772C182.765 36.9781 183.172 37.1286 183.679 37.1286ZM192.915 26.5824C194.001 26.5824 194.933 26.8062 195.711 27.2539C196.489 27.7016 197.087 28.3364 197.505 29.1584C197.924 29.9804 198.133 30.9638 198.133 32.1087V33.4957H189.998C190.027 34.6773 190.343 35.5874 190.944 36.2259C191.554 36.8643 192.405 37.1836 193.498 37.1836C194.276 37.1836 194.974 37.1102 195.59 36.9634C196.214 36.8093 196.856 36.5855 197.516 36.2919V38.3945C196.907 38.6808 196.287 38.8899 195.656 39.022C195.025 39.1541 194.269 39.2202 193.388 39.2202C192.192 39.2202 191.139 38.989 190.229 38.5266C189.326 38.0569 188.618 37.3597 188.104 36.435C187.598 35.5103 187.345 34.3617 187.345 32.9893C187.345 31.6243 187.576 30.4647 188.038 29.5107C188.501 28.5566 189.15 27.83 189.987 27.331C190.823 26.8319 191.799 26.5824 192.915 26.5824ZM192.915 28.5309C192.1 28.5309 191.44 28.7951 190.933 29.3235C190.434 29.8519 190.141 30.6262 190.053 31.6463H195.601C195.594 31.0372 195.491 30.4978 195.293 30.0281C195.102 29.5584 194.808 29.1914 194.412 28.9272C194.023 28.663 193.524 28.5309 192.915 28.5309ZM203.648 39H201.05V21.8707H203.648V39ZM209.945 39H207.347V21.8707H209.945V39ZM216.231 26.8136V39H213.644V26.8136H216.231ZM214.954 22.146C215.35 22.146 215.692 22.2524 215.978 22.4652C216.271 22.678 216.418 23.045 216.418 23.5661C216.418 24.0798 216.271 24.4467 215.978 24.6669C215.692 24.8797 215.35 24.9862 214.954 24.9862C214.543 24.9862 214.194 24.8797 213.908 24.6669C213.629 24.4467 213.49 24.0798 213.49 23.5661C213.49 23.045 213.629 22.678 213.908 22.4652C214.194 22.2524 214.543 22.146 214.954 22.146ZM223.42 44.4162C221.768 44.4162 220.502 44.119 219.622 43.5245C218.741 42.93 218.301 42.0971 218.301 41.0256C218.301 40.277 218.535 39.6422 219.005 39.1211C219.475 38.6074 220.146 38.2514 221.02 38.0533C220.689 37.9065 220.403 37.679 220.161 37.3707C219.926 37.0552 219.809 36.7066 219.809 36.3249C219.809 35.8699 219.937 35.4809 220.194 35.158C220.451 34.8351 220.836 34.5232 221.35 34.2223C220.711 33.9508 220.198 33.5104 219.809 32.9013C219.427 32.2848 219.236 31.5619 219.236 30.7326C219.236 29.8519 219.423 29.1033 219.798 28.4869C220.172 27.863 220.719 27.3897 221.438 27.0668C222.157 26.7365 223.027 26.5714 224.047 26.5714C224.267 26.5714 224.506 26.5861 224.763 26.6154C225.027 26.6374 225.269 26.6668 225.489 26.7035C225.717 26.7328 225.889 26.7659 226.007 26.8026H230.223V28.2447L228.153 28.63C228.351 28.9089 228.509 29.2281 228.627 29.5877C228.744 29.94 228.803 30.3253 228.803 30.7436C228.803 32.0059 228.366 33.0004 227.493 33.7269C226.627 34.4461 225.43 34.8058 223.904 34.8058C223.537 34.7911 223.181 34.7617 222.836 34.7177C222.572 34.8791 222.37 35.0589 222.231 35.2571C222.091 35.4479 222.021 35.6644 222.021 35.9066C222.021 36.1048 222.091 36.2662 222.231 36.391C222.37 36.5084 222.576 36.5965 222.847 36.6552C223.126 36.7139 223.464 36.7433 223.86 36.7433H225.963C227.298 36.7433 228.318 37.0258 229.023 37.5909C229.727 38.156 230.08 38.9853 230.08 40.0788C230.08 41.4659 229.507 42.5337 228.362 43.2823C227.217 44.0382 225.57 44.4162 223.42 44.4162ZM223.519 42.5998C224.421 42.5998 225.181 42.5117 225.797 42.3356C226.414 42.1594 226.88 41.9062 227.195 41.576C227.511 41.2531 227.669 40.8678 227.669 40.4201C227.669 40.0238 227.57 39.7192 227.372 39.5064C227.173 39.2936 226.876 39.1468 226.48 39.0661C226.084 38.9853 225.592 38.945 225.005 38.945H223.089C222.612 38.945 222.19 39.0183 221.823 39.1651C221.456 39.3192 221.17 39.5394 220.965 39.8256C220.766 40.1119 220.667 40.4568 220.667 40.8604C220.667 41.4182 220.913 41.8475 221.405 42.1484C221.904 42.4493 222.609 42.5998 223.519 42.5998ZM224.025 33.1104C224.781 33.1104 225.342 32.9049 225.709 32.494C226.076 32.0756 226.26 31.4885 226.26 30.7326C226.26 29.9106 226.069 29.2942 225.687 28.8832C225.313 28.4722 224.755 28.2667 224.014 28.2667C223.287 28.2667 222.733 28.4759 222.352 28.8942C221.977 29.3125 221.79 29.9326 221.79 30.7546C221.79 31.4959 221.977 32.0756 222.352 32.494C222.733 32.9049 223.291 33.1104 224.025 33.1104ZM237.301 26.5824C238.387 26.5824 239.32 26.8062 240.097 27.2539C240.875 27.7016 241.474 28.3364 241.892 29.1584C242.31 29.9804 242.519 30.9638 242.519 32.1087V33.4957H234.384C234.413 34.6773 234.729 35.5874 235.331 36.2259C235.94 36.8643 236.791 37.1836 237.885 37.1836C238.663 37.1836 239.36 37.1102 239.976 36.9634C240.6 36.8093 241.242 36.5855 241.903 36.2919V38.3945C241.294 38.6808 240.674 38.8899 240.042 39.022C239.411 39.1541 238.655 39.2202 237.775 39.2202C236.578 39.2202 235.525 38.989 234.615 38.5266C233.713 38.0569 233.004 37.3597 232.491 36.435C231.984 35.5103 231.731 34.3617 231.731 32.9893C231.731 31.6243 231.962 30.4647 232.425 29.5107C232.887 28.5566 233.536 27.83 234.373 27.331C235.21 26.8319 236.186 26.5824 237.301 26.5824ZM237.301 28.5309C236.487 28.5309 235.826 28.7951 235.32 29.3235C234.821 29.8519 234.527 30.6262 234.439 31.6463H239.987C239.98 31.0372 239.877 30.4978 239.679 30.0281C239.488 29.5584 239.195 29.1914 238.798 28.9272C238.409 28.663 237.91 28.5309 237.301 28.5309ZM251.789 26.5824C253.161 26.5824 254.229 26.9383 254.992 27.6502C255.763 28.3548 256.148 29.4886 256.148 31.0518V39H253.561V31.5362C253.561 30.5895 253.366 29.8813 252.977 29.4116C252.588 28.9345 251.987 28.696 251.172 28.696C249.99 28.696 249.168 29.0593 248.706 29.7859C248.251 30.5124 248.024 31.5656 248.024 32.9453V39H245.437V26.8136H247.451L247.814 28.4648H247.958C248.222 28.0392 248.548 27.6906 248.937 27.419C249.334 27.1402 249.774 26.931 250.258 26.7915C250.75 26.6521 251.26 26.5824 251.789 26.5824ZM264.679 39.2202C263.527 39.2202 262.529 38.9963 261.685 38.5487C260.841 38.101 260.192 37.4148 259.737 36.4901C259.282 35.5653 259.054 34.3911 259.054 32.9673C259.054 31.4848 259.304 30.2739 259.803 29.3345C260.302 28.3951 260.992 27.7016 261.872 27.2539C262.76 26.8062 263.777 26.5824 264.922 26.5824C265.648 26.5824 266.305 26.6558 266.892 26.8026C267.487 26.942 267.989 27.1145 268.4 27.32L267.63 29.3896C267.182 29.2061 266.723 29.052 266.254 28.9272C265.784 28.8024 265.333 28.7401 264.9 28.7401C264.188 28.7401 263.593 28.8978 263.116 29.2134C262.647 29.529 262.294 29.9987 262.059 30.6225C261.832 31.2463 261.718 32.0206 261.718 32.9453C261.718 33.8407 261.836 34.5966 262.07 35.2131C262.305 35.8222 262.654 36.2846 263.116 36.6001C263.579 36.9084 264.147 37.0625 264.823 37.0625C265.49 37.0625 266.089 36.9818 266.617 36.8203C267.145 36.6589 267.644 36.4497 268.114 36.1928V38.4386C267.652 38.7028 267.156 38.8973 266.628 39.022C266.1 39.1541 265.45 39.2202 264.679 39.2202ZM275.831 26.5824C276.917 26.5824 277.849 26.8062 278.627 27.2539C279.405 27.7016 280.003 28.3364 280.422 29.1584C280.84 29.9804 281.049 30.9638 281.049 32.1087V33.4957H272.914C272.943 34.6773 273.259 35.5874 273.861 36.2259C274.47 36.8643 275.321 37.1836 276.415 37.1836C277.193 37.1836 277.89 37.1102 278.506 36.9634C279.13 36.8093 279.772 36.5855 280.433 36.2919V38.3945C279.824 38.6808 279.203 38.8899 278.572 39.022C277.941 39.1541 277.185 39.2202 276.304 39.2202C275.108 39.2202 274.055 38.989 273.145 38.5266C272.242 38.0569 271.534 37.3597 271.02 36.435C270.514 35.5103 270.261 34.3617 270.261 32.9893C270.261 31.6243 270.492 30.4647 270.954 29.5107C271.417 28.5566 272.066 27.83 272.903 27.331C273.739 26.8319 274.716 26.5824 275.831 26.5824ZM275.831 28.5309C275.016 28.5309 274.356 28.7951 273.85 29.3235C273.351 29.8519 273.057 30.6262 272.969 31.6463H278.517C278.51 31.0372 278.407 30.4978 278.209 30.0281C278.018 29.5584 277.725 29.1914 277.328 28.9272C276.939 28.663 276.44 28.5309 275.831 28.5309Z" fill="#3A68B8"/>
</svg>
